<?xml version="1.0" encoding="UTF-8" standalone="no"?>
<svg
   xml:space="preserve"
   x="0px"
   y="0px"
   viewBox="0 0 500 500.00001"
   version="1.1"
   id="svg1"
   sodipodi:docname="bluesky.svg"
   width="500"
   height="500"
   inkscape:version="1.4 (86a8ad7, 2024-10-11)"
   xmlns:inkscape="http://www.inkscape.org/namespaces/inkscape"
   xmlns:sodipodi="http://sodipodi.sourceforge.net/DTD/sodipodi-0.dtd"
   xmlns="http://www.w3.org/2000/svg"
   xmlns:svg="http://www.w3.org/2000/svg"><defs
     id="defs1" /><sodipodi:namedview
     id="namedview1"
     pagecolor="#ffffff"
     bordercolor="#999999"
     borderopacity="1"
     inkscape:showpageshadow="2"
     inkscape:pageopacity="0"
     inkscape:pagecheckerboard="0"
     inkscape:deskcolor="#d1d1d1"
     inkscape:zoom="1.12"
     inkscape:cx="217.85714"
     inkscape:cy="287.94643"
     inkscape:window-width="1920"
     inkscape:window-height="1009"
     inkscape:window-x="-8"
     inkscape:window-y="-8"
     inkscape:window-maximized="1"
     inkscape:current-layer="svg1" /><path
     fill="#000000"
     d="M 108.38313,79.726735 C 165.70307,122.90609 227.36752,210.44462 249.99859,257.42052 v 124.07813 c 0,-2.64193 -1.01484,0.34386 -3.20386,6.77394 C 234.98296,423.08447 188.84296,558.952 83.33378,450.33402 27.780708,393.14547 53.498221,335.95972 154.62377,318.69357 96.772642,328.56792 31.733807,312.24951 13.888944,248.26464 8.7504746,229.86065 -2.2920991e-5,116.48441 -2.2920991e-5,101.17244 -2.2920991e-5,24.470005 67.023749,48.58 108.38313,79.726735 Z m 283.23093,0 C 334.29411,122.90609 272.62967,210.44462 249.99859,257.42052 v 124.07813 c 0,-2.64193 1.01483,0.34386 3.20385,6.77394 11.81177,34.81188 57.95178,170.67941 163.46096,62.06143 55.55307,-57.18855 29.83556,-114.3743 -71.28999,-131.64045 57.85112,9.87435 122.88996,-6.44406 140.73482,-70.42893 5.14127,-18.40679 13.89176,-131.78023 13.89176,-147.0922 C 499.99699,24.470005 432.98182,48.58 391.61406,79.726735 Z"
     id="path1"
     style="stroke-width:1" /></svg>
